<svg xmlns="http://www.w3.org/2000/svg" viewBox="0 0 124.88 124.91"><defs><style>.cls-1{fill:#e63643;}</style></defs><g id="Layer_2" data-name="Layer 2"><g id="Layer_1-2" data-name="Layer 1"><path class="cls-1" d="M98.84,53.22c-4.33.14-8.67.3-13,.39l.38-.3L83.52,66,80.8,78.61l-1,4.48-1-4.51L74,56.45,69.32,34.29l3.2-.06-4.17,27-4.2,27L62.08,101,60.42,88.1,56.86,61.15l-3.45-27,3.21.1L52,56.45,47.35,78.58l-.85,4.07-1.11-3.91L41.82,66.07,38.24,53.33l.38.28c-4.32-.09-8.62-.25-12.93-.39,4.31-.14,8.61-.3,12.93-.39h.27l.09.29L43.15,65.6l4.12,12.55-1.94.1,4-22.27,4.11-22.26,1.81-9.86,1.4,9.86L60.4,60.64l3.76,26.92H60.4l4.38-26.92,4.53-26.92,1.55-9,1.69,9,4.21,22.26,4.1,22.28H78.92L82.2,65.64,85.51,53.1l.08-.32h.3Z"/><path class="cls-1" d="M62.29,124.91H59l-.49-1a60.38,60.38,0,0,1-2.32-6.27c-.41-1.26-.85-2.62-1.25-3.77a52,52,0,0,1-5.5-1.09c-.9,1-1.84,2.07-2.77,3.15a62.53,62.53,0,0,1-4.4,4.81l-.86.77-1.09-.4c-1.25-.47-2.51-1-3.86-1.62L35.39,119v-1.16a59.08,59.08,0,0,1,.29-6.65c.1-1.36.21-2.77.26-4.05A55.62,55.62,0,0,1,31.28,104c-1.16.52-2.42,1.16-3.65,1.79a61.18,61.18,0,0,1-6,2.8l-1.08.39-.84-.79c-1-.94-2-1.93-3-3l-.78-.84.39-1.08a55,55,0,0,1,2.77-6c.63-1.25,1.26-2.51,1.82-3.76a54.19,54.19,0,0,1-3.12-4.67c-1.26,0-2.7.15-4.07.27a61.51,61.51,0,0,1-6.65.27H5.92l-.47-1c-.62-1.35-1.15-2.61-1.62-3.88l-.42-1.08.79-.85A60.59,60.59,0,0,1,9,78.19c1.09-.93,2.19-1.88,3.16-2.77a49.68,49.68,0,0,1-1.09-5.51C9.89,69.47,8.56,69,7.3,68.65A56.18,56.18,0,0,1,1,66.32l-1-.49V59.26l1-.49A58.29,58.29,0,0,1,7.3,56.43c1.26-.42,2.62-.85,3.77-1.25a48.79,48.79,0,0,1,1.09-5.51c-1-.89-2.07-1.84-3.15-2.76A59.12,59.12,0,0,1,4.2,42.49l-.79-.85.42-1.08c.46-1.25,1-2.51,1.62-3.87l.47-1H7.06a59.07,59.07,0,0,1,6.65.28c1.38.11,2.8.23,4.07.28a48.79,48.79,0,0,1,3.12-4.68c-.54-1.17-1.25-2.45-1.82-3.69a58.11,58.11,0,0,1-2.77-6l-.39-1.08.78-.84c.95-1,2-2,3-3l.84-.79,1.08.39a60.12,60.12,0,0,1,6,2.77c1.25.64,2.51,1.26,3.76,1.82A54.19,54.19,0,0,1,36,18c0-1.26-.17-2.69-.27-4.07a56.54,56.54,0,0,1-.28-6.64V6.16l1-.48c1.35-.61,2.62-1.14,3.86-1.62l1.1-.4.85.78A59.89,59.89,0,0,1,46.62,9c.88,1,1.86,2.17,2.77,3.15a55.33,55.33,0,0,1,5.51-1.09c.43-1.18.86-2.51,1.26-3.77A56.12,56.12,0,0,1,58.48,1L59,0h6.58L66,1A54.16,54.16,0,0,1,68.35,7.3c.43,1.26.85,2.6,1.26,3.77a52.26,52.26,0,0,1,5.49,1.09C76,11.2,77,10.1,77.86,9A56.09,56.09,0,0,1,82.29,4.2l.85-.77,1.08.4c1.26.47,2.51,1,3.87,1.62l1,.47V7.08A60,60,0,0,1,89,13.65c-.11,1.38-.23,2.8-.28,4.08a52,52,0,0,1,4.73,3.17c1.18-.54,2.51-1.18,3.77-1.82a62.29,62.29,0,0,1,6-2.77l1.09-.39.84.79c1,1,2,2,3,3l.79.84-.41,1.09a57,57,0,0,1-2.77,6c-.63,1.25-1.25,2.51-1.82,3.69A50.83,50.83,0,0,1,107,36c1.25,0,2.69-.17,4.06-.28a59.06,59.06,0,0,1,6.65-.27h1.14l.48,1c.61,1.34,1.14,2.61,1.62,3.87l.41,1.08-.79.86a56.76,56.76,0,0,1-4.78,4.39c-1.09.94-2.21,1.89-3.17,2.78a52.09,52.09,0,0,1,1.09,5.51c1.17.43,2.51.85,3.76,1.25a58,58,0,0,1,6.38,2.35l1,.49V65.6l-1,.49a54.36,54.36,0,0,1-6.28,2.32c-1.25.43-2.62.87-3.76,1.26a52.09,52.09,0,0,1-1.09,5.51c1,.89,2.08,1.84,3.16,2.77a60.59,60.59,0,0,1,4.8,4.4l.78.86-.41,1.08c-.47,1.25-1,2.5-1.62,3.87l-.48,1h-1.14a54.21,54.21,0,0,1-6.62-.27c-1.4-.12-2.81-.23-4.09-.27A51.92,51.92,0,0,1,104,93.32c.54,1.18,1.26,2.51,1.82,3.7a55.19,55.19,0,0,1,2.77,6l.41,1.08-.79.84c-1,1-2,2-3,3l-.84.79-1.08-.39a55.92,55.92,0,0,1-6-2.79c-1.18-.59-2.51-1.25-3.77-1.8a54,54,0,0,1-4.66,3.12c0,1.26.16,2.69.26,4a56.81,56.81,0,0,1,.29,6.65v1.16l-1.05.47c-1.36.62-2.63,1.15-3.87,1.62l-1.08.4-.85-.77a57.5,57.5,0,0,1-4.42-4.81c-.94-1.09-1.88-2.19-2.77-3.15a51.42,51.42,0,0,1-5.5,1.09c-.43,1.16-.85,2.51-1.25,3.77a58.65,58.65,0,0,1-2.35,6.37l-.49,1H64.66A16.44,16.44,0,0,1,62.29,124.91Zm-.84-3.76h1.67c.58-1.41,1.14-3.13,1.69-4.81s1-3.35,1.65-4.83l.52-1.25,1.37-.19A47.86,47.86,0,0,0,75,108.81l1.36-.37,1,1c1.13,1.16,2.32,2.51,3.46,3.89S83,116,84.05,117.11l1.45-.62c0-1.49-.16-3.27-.3-5s-.27-3.51-.3-5.1v-1.55l1.25-.69a46.12,46.12,0,0,0,5.61-3.76l1.11-.85,1.25.55c1.49.64,3.18,1.49,4.66,2.24s3.11,1.59,4.49,2.17l1.11-1.11c-.59-1.37-1.39-2.94-2.17-4.48S100.6,95.7,100,94.22L99.42,93l.85-1.11A48.26,48.26,0,0,0,104,86.24l.69-1.25h1.41c1.59,0,3.37.16,5.1.3s3.54.28,5,.29c.22-.49.42-1,.61-1.45-1-1-2.36-2.14-3.66-3.24s-2.76-2.38-3.92-3.51l-1-1,.38-1.36a47.83,47.83,0,0,0,1.25-6.61l.19-1.41,1.26-.51c1.45-.58,3.12-1.12,4.75-1.64s3.43-1.13,4.84-1.7V61.54c-1.41-.57-3.15-1.13-4.84-1.68s-3.31-1.09-4.75-1.66l-1.26-.51L110,56.31a46.69,46.69,0,0,0-1.26-6.63l-.37-1.34,1-1c1.17-1.13,2.51-2.32,3.9-3.48s2.64-2.24,3.68-3.27c-.19-.48-.39-1-.6-1.44-1.49,0-3.28.15-5,.29s-3.53.27-5.13.3h-1.41l-.7-1.26a48.14,48.14,0,0,0-3.76-5.61l-.87-1.11.57-1.26c.62-1.47,1.44-3.07,2.23-4.63s1.59-3.13,2.18-4.5l-1.11-1.12c-1.37.59-3,1.39-4.5,2.17S95.64,24,94.16,24.68l-1.26.55-1.1-.87a51.76,51.76,0,0,0-5.61-3.76l-1.25-.69V18.49c0-1.59.17-3.37.3-5.09s.27-3.54.3-5l-1.46-.61c-1,1.06-2.15,2.38-3.26,3.67s-2.36,2.75-3.49,3.92l-1,1L75,16a48.26,48.26,0,0,0-6.65-1.31L67,14.52l-.53-1.26c-.56-1.44-1.1-3.1-1.63-4.7s-1.1-3.52-1.68-5H61.45C60.87,5,60.31,6.76,59.76,8.44s-1.07,3.29-1.65,4.75l-.51,1.25-1.41.18A47.46,47.46,0,0,0,49.53,16l-1.25.36-1-1c-1.14-1.18-2.38-2.64-3.49-3.92s-2.24-2.62-3.26-3.67l-1.44.61c0,1.51.15,3.29.29,5s.27,3.51.3,5.1v1.41l-1.26.69a49.08,49.08,0,0,0-5.61,3.77l-1.1.85-1.26-.55C29,24,27.39,23.22,25.82,22.43s-3.12-1.58-4.49-2.17c-.38.37-.74.74-1.11,1.12.58,1.35,1.37,2.92,2.15,4.44S24,29,24.63,30.51l.56,1.26-.86,1.11a47.81,47.81,0,0,0-3.77,5.61l-.7,1.26h-1.4c-1.59,0-3.37-.17-5.09-.3s-3.55-.28-5-.29c-.22.49-.42,1-.61,1.44,1.06,1,2.39,2.16,3.68,3.27s2.67,2.4,3.85,3.48l1,1-.37,1.34a49.84,49.84,0,0,0-1.26,6.62l-.25,1.4-1.25.51c-1.43.57-3.09,1.11-4.69,1.63S5,61,3.56,61.54v1.68C5,63.78,6.7,64.35,8.39,64.9s3.3,1.08,4.76,1.66l1.32.51.17,1.41a46.42,46.42,0,0,0,1.26,6.61l.38,1.29-1,1c-1.18,1.14-2.57,2.33-3.91,3.49s-2.63,2.24-3.68,3.27c.19.48.39,1,.6,1.45,1.51,0,3.3-.16,5-.29s3.51-.28,5.11-.3h1.4l.71,1.25a45.74,45.74,0,0,0,3.76,5.61L25.16,93l-.57,1.26c-.64,1.48-1.49,3.16-2.25,4.65s-1.58,3.12-2.15,4.48c.36.38.72.76,1.1,1.12,1.38-.59,3-1.39,4.49-2.17s3.2-1.62,4.66-2.25l1.25-.55,1.11.87a48.26,48.26,0,0,0,5.62,3.76l1.25.7v1.41c0,1.58-.16,3.36-.3,5.09s-.28,3.53-.29,5l1.44.62c1-1.06,2.15-2.38,3.24-3.66s2.37-2.77,3.51-3.93l1-1,1.36.38A51,51,0,0,0,56.22,110l1.4.18.49,1.34c.58,1.46,1.12,3.12,1.65,4.74a50.53,50.53,0,0,0,1.69,4.88Z"/></g></g></svg>