<svg xmlns="http://www.w3.org/2000/svg" viewBox="0 0 156.33 124.91"><defs><style>.cls-1{fill:#e63643;}</style></defs><g id="Layer_2" data-name="Layer 2"><g id="Layer_1-2" data-name="Layer 1"><path class="cls-1" d="M8.3,124.68l-5-9.32v8.28a.68.68,0,0,0,.14.46.9.9,0,0,0,.49.26v.32H0v-.32a.9.9,0,0,0,.49-.26.63.63,0,0,0,.14-.46V112.22a.65.65,0,0,0-.14-.46,1,1,0,0,0-.49-.25v-.32H5.2v.32a.54.54,0,0,0-.47.54,1.08,1.08,0,0,0,.14.46l3.68,7,3.73-6.86a1.72,1.72,0,0,0,.25-.66c0-.27-.17-.42-.5-.45v-.32h5.1v.32a1,1,0,0,0-.49.25.7.7,0,0,0-.14.46v11.42a.68.68,0,0,0,.14.46.94.94,0,0,0,.49.26v.32H12.92v-.32a.94.94,0,0,0,.49-.25.68.68,0,0,0,.15-.47v-8.28Z"/><path class="cls-1" d="M29.43,121.24H23.3l-.91,1.9a1.62,1.62,0,0,0-.18.62q0,.43.66.6v.32H18.41v-.32a1.12,1.12,0,0,0,.6-.28,2.4,2.4,0,0,0,.47-.77l5-10.36a2,2,0,0,0,.24-.79c0-.3-.19-.52-.57-.65v-.32h4.78v.32c-.39.11-.58.3-.58.58a1.49,1.49,0,0,0,.18.65l5.14,10.4a3.7,3.7,0,0,0,.57.9,1.28,1.28,0,0,0,.67.32v.32h-5v-.32c.44-.07.66-.28.66-.61a1.61,1.61,0,0,0-.2-.61Zm-.85-1.85-2.18-4.8-2.22,4.8Z"/><path class="cls-1" d="M48.07,120l1.87,2.81-.25.18a.78.78,0,0,0-.46-.25,3.35,3.35,0,0,0-1,.47,13.42,13.42,0,0,1-2.86,1.32,9.73,9.73,0,0,1-2.76.34,8.53,8.53,0,0,1-5.23-1.51,6.22,6.22,0,0,1-1.9-2.18,6.87,6.87,0,0,1-.8-3.29,6.7,6.7,0,0,1,1.43-4.26Q38.27,111,42.62,111a10,10,0,0,1,2.75.34,14.13,14.13,0,0,1,2.86,1.32,3.67,3.67,0,0,0,1,.47.81.81,0,0,0,.46-.26l.25.18-1.87,2.82-.27-.18c0-.11,0-.2,0-.27a.72.72,0,0,0-.25-.53,4.1,4.1,0,0,0-.88-.61,7.37,7.37,0,0,0-3.7-1,5.56,5.56,0,0,0-3.69,1.15,4.67,4.67,0,0,0,0,7.07A5.56,5.56,0,0,0,43,122.62a7.38,7.38,0,0,0,3.7-1,3.8,3.8,0,0,0,.88-.6.75.75,0,0,0,.25-.54c0-.07,0-.16,0-.26Z"/><path class="cls-1" d="M63.12,118.79H55.35v4.86a.7.7,0,0,0,.14.46,1,1,0,0,0,.49.25v.32H51.77v-.32a1,1,0,0,0,.5-.26.65.65,0,0,0,.13-.45V112.22a.7.7,0,0,0-.13-.46,1.06,1.06,0,0,0-.5-.25v-.32H56v.32a.9.9,0,0,0-.49.25.65.65,0,0,0-.14.46v4.35h7.77v-4.35a.7.7,0,0,0-.13-.46,1,1,0,0,0-.5-.25v-.32H66.7v.32a1,1,0,0,0-.49.25.65.65,0,0,0-.14.46v11.43a.61.61,0,0,0,.14.45.9.9,0,0,0,.49.26v.32H62.49v-.32a1,1,0,0,0,.49-.25.65.65,0,0,0,.14-.46Z"/><path class="cls-1" d="M72.71,119.17v4.48a.65.65,0,0,0,.14.46,1,1,0,0,0,.49.25v.32H69.13v-.32a1,1,0,0,0,.5-.26.65.65,0,0,0,.13-.45V112.23a.71.71,0,0,0-.13-.47,1.06,1.06,0,0,0-.5-.25v-.32h8.44a13,13,0,0,1,2.44.18,4.47,4.47,0,0,1,1.58.62,3.09,3.09,0,0,1,1.16,1.39,4.49,4.49,0,0,1,.37,1.82q0,3.3-3.66,3.87l2.61,3.72a8.06,8.06,0,0,0,1,1.26,1.24,1.24,0,0,0,.78.31v.32H79v-.32c.33,0,.5-.17.5-.35a2.42,2.42,0,0,0-.46-.86l-2.73-4Zm0-2.22h4.54a11.33,11.33,0,0,0,1.42-.06,2.47,2.47,0,0,0,.77-.24,1.53,1.53,0,0,0,.75-1.47,1.51,1.51,0,0,0-.75-1.46,2.06,2.06,0,0,0-.76-.25,11.3,11.3,0,0,0-1.43-.06H72.71Z"/><path class="cls-1" d="M92.65,111a8,8,0,0,1,5.6,1.91,7,7,0,0,1,1.13,8.77q-2,3.28-6.71,3.28A7.91,7.91,0,0,1,87.1,123a6.83,6.83,0,0,1-1.68-2.44,7.16,7.16,0,0,1-.5-2.64,7,7,0,0,1,1-3.71Q87.94,111,92.65,111Zm0,2.3a4.65,4.65,0,0,0-3.21,1.14,4.87,4.87,0,0,0,0,7.09,5.13,5.13,0,0,0,6.45,0,4.51,4.51,0,0,0,1.17-1.67,4.76,4.76,0,0,0,.36-1.82,4.51,4.51,0,0,0-1.53-3.6A4.81,4.81,0,0,0,92.66,113.25Z"/><path class="cls-1" d="M105.88,115.44v8.2a.68.68,0,0,0,.13.46,1,1,0,0,0,.5.26v.32h-4v-.32a.93.93,0,0,0,.5-.26.68.68,0,0,0,.14-.46V112.22a.7.7,0,0,0-.14-.46,1,1,0,0,0-.5-.25v-.32h4.59v.32q-.42.1-.42.45a.84.84,0,0,0,.27.53l7.44,7.73v-8a.65.65,0,0,0-.14-.46,1,1,0,0,0-.49-.25v-.32h4v.32a1,1,0,0,0-.49.25.65.65,0,0,0-.14.46v11.42a.63.63,0,0,0,.14.46.9.9,0,0,0,.49.26v.32H113.5v-.32q.42-.09.42-.42c0-.14-.16-.37-.49-.69Z"/><path class="cls-1" d="M120.81,123.64V112.22a.65.65,0,0,0-.14-.46,1,1,0,0,0-.49-.25v-.32h4.21v.32a.9.9,0,0,0-.49.25.65.65,0,0,0-.14.46v11.42a.73.73,0,0,0,.14.47,1,1,0,0,0,.49.25v.32h-4.21v-.32a.9.9,0,0,0,.49-.26A.63.63,0,0,0,120.81,123.64Z"/><path class="cls-1" d="M139.88,120l1.88,2.81-.26.18a.73.73,0,0,0-.45-.25,3.35,3.35,0,0,0-1,.47,13.65,13.65,0,0,1-2.86,1.32,9.73,9.73,0,0,1-2.76.34,8.58,8.58,0,0,1-5.24-1.51,6.43,6.43,0,0,1-1.9-2.18,6.87,6.87,0,0,1-.79-3.29,6.64,6.64,0,0,1,1.43-4.26q2.15-2.72,6.51-2.72a9.9,9.9,0,0,1,2.74.34,14.17,14.17,0,0,1,2.87,1.32,3.67,3.67,0,0,0,1,.47.76.76,0,0,0,.45-.26l.26.18-1.88,2.82-.26-.18c0-.11,0-.2,0-.27a.75.75,0,0,0-.25-.53,4.39,4.39,0,0,0-.88-.61,7.41,7.41,0,0,0-3.71-1,5.52,5.52,0,0,0-3.68,1.15,4.67,4.67,0,0,0,0,7.07,5.52,5.52,0,0,0,3.68,1.15,7.42,7.42,0,0,0,3.71-1,4,4,0,0,0,.88-.6.79.79,0,0,0,.25-.54c0-.07,0-.16,0-.26Z"/><path class="cls-1" d="M156.33,112.33l-1.61,3.18-.27-.16c0-.06,0-.12,0-.16,0-.22-.2-.46-.58-.72a7.08,7.08,0,0,0-4.13-1.22,6.14,6.14,0,0,0-1.85.25,2.18,2.18,0,0,0-.94.6,1.22,1.22,0,0,0-.36.85c0,.51.31.86.92,1a15,15,0,0,0,2,.3l1.56.15a12.84,12.84,0,0,1,2.23.41,5.21,5.21,0,0,1,1.52.72,3.38,3.38,0,0,1,1.06,1.27,3.91,3.91,0,0,1-.53,4.22,4.91,4.91,0,0,1-2.57,1.49,10.53,10.53,0,0,1-2.8.36,11.8,11.8,0,0,1-5.29-1.28,3,3,0,0,0-.66-.26.89.89,0,0,0-.4.22l-.29-.15,1.46-3.31.29.14v.13a1.09,1.09,0,0,0,.42.82,5.48,5.48,0,0,0,2,1,8.8,8.8,0,0,0,2.55.41,5.26,5.26,0,0,0,2.24-.44,2.16,2.16,0,0,0,.82-.66,1.41,1.41,0,0,0,.31-.85,1,1,0,0,0-.72-1,9.8,9.8,0,0,0-2-.36l-1.52-.16a18.42,18.42,0,0,1-2.16-.3,5.71,5.71,0,0,1-1.27-.46,3.25,3.25,0,0,1-1.41-1.34,3.56,3.56,0,0,1-.47-1.83,3.75,3.75,0,0,1,1.18-2.83,6.47,6.47,0,0,1,4.62-1.48,10.16,10.16,0,0,1,2.41.27,17.24,17.24,0,0,1,2.79,1,2.75,2.75,0,0,0,.7.23.8.8,0,0,0,.49-.23Z"/><path class="cls-1" d="M107.3,42.54c-3.45.11-6.91.24-10.36.31l.3-.24L95.09,52.7,92.92,62.78l-.76,3.57-.79-3.6L87.53,45.11,83.77,27.45l2.55-.05L83,48.9,79.65,70.38,78,80.59,76.68,70.34,73.84,48.86,71.09,27.37l2.56.08L70,45.11,66.26,62.75,65.58,66l-.88-3.12-2.85-10.1L59,42.63l.3.22c-3.44-.07-6.87-.2-10.3-.31,3.43-.11,6.86-.24,10.3-.31h.22l.07.23,3.32,9.95,3.29,10-1.55.08,3.17-17.75L71.1,27l1.44-7.86L73.66,27l3,21.45,3,21.46-3,0,3.49-21.46L83.76,27,85,19.81l1.35,7.13,3.35,17.74,3.27,17.76-1.55,0,2.62-10,2.64-10,.06-.25h.24C100.39,42.3,103.85,42.43,107.3,42.54Z"/><path class="cls-1" d="M78.17,99.68c-.58,0-1.15,0-1.72,0l-.91,0-.39-.82a47.5,47.5,0,0,1-1.85-5c-.33-1-.68-2.09-1-3-1.48-.22-3-.51-4.38-.87-.72.77-1.47,1.65-2.21,2.51a49.22,49.22,0,0,1-3.51,3.83l-.68.62-.87-.32c-1-.38-2-.8-3.08-1.29l-.84-.38,0-.92a45.59,45.59,0,0,1,.23-5.3c.08-1.09.17-2.21.21-3.23a42.28,42.28,0,0,1-3.72-2.49c-.92.42-1.93.93-2.91,1.43a48.15,48.15,0,0,1-4.81,2.23l-.86.31-.67-.63c-.81-.75-1.6-1.54-2.37-2.36l-.62-.67.31-.86a43.57,43.57,0,0,1,2.21-4.77c.5-1,1-2,1.45-3a43,43,0,0,1-2.49-3.72c-1,0-2.15.12-3.24.21a47.66,47.66,0,0,1-5.3.22l-.91,0-.38-.83c-.49-1.08-.91-2.08-1.29-3.09l-.33-.86.63-.68a46.79,46.79,0,0,1,3.82-3.51c.87-.74,1.75-1.5,2.52-2.21a40.56,40.56,0,0,1-.87-4.39c-.94-.35-2-.69-3-1a45.19,45.19,0,0,1-5-1.86l-.82-.39,0-.9c0-.57,0-1.14,0-1.72s0-1.15,0-1.72l0-.9.82-.39a45.73,45.73,0,0,1,5-1.86c1-.34,2.09-.68,3-1a40.56,40.56,0,0,1,.87-4.39c-.77-.71-1.65-1.47-2.51-2.2a47.18,47.18,0,0,1-3.83-3.52l-.63-.68.33-.86c.37-1,.79-2,1.29-3.09l.38-.83.91,0a47.66,47.66,0,0,1,5.3.22c1.1.09,2.23.18,3.24.22a40.32,40.32,0,0,1,2.49-3.73c-.43-.93-1-1.95-1.45-2.94a45.29,45.29,0,0,1-2.21-4.78l-.31-.86.62-.67c.76-.81,1.56-1.61,2.37-2.36l.67-.63.86.31a47.67,47.67,0,0,1,4.77,2.21c1,.51,2,1,3,1.45a44.62,44.62,0,0,1,3.72-2.49c0-1-.13-2.14-.21-3.24a45.33,45.33,0,0,1-.23-5.29l0-.92.84-.38c1.08-.49,2.09-.91,3.08-1.29l.87-.32.68.62A47,47,0,0,1,65.68,7.3c.7.82,1.48,1.73,2.21,2.51,1.43-.36,2.9-.65,4.39-.87.34-.94.68-2,1-3a45.8,45.8,0,0,1,1.85-5l.39-.82.91,0c1.14,0,2.29,0,3.43,0l.91,0,.39.82A44.75,44.75,0,0,1,83,5.94c.34,1,.68,2.07,1,3,1.48.22,3,.51,4.38.87.71-.76,1.47-1.64,2.2-2.5a45.54,45.54,0,0,1,3.53-3.84l.68-.62.86.32c1,.38,2,.8,3.08,1.29l.84.38,0,.92A47.4,47.4,0,0,1,99.45,11c-.09,1.1-.18,2.23-.22,3.25A43,43,0,0,1,103,16.78c.94-.43,2-.94,3-1.45a48.72,48.72,0,0,1,4.77-2.21l.87-.31.67.63c.81.76,1.61,1.56,2.36,2.36l.63.67-.32.87a47.67,47.67,0,0,1-2.21,4.77c-.5,1-1,2-1.45,2.94a40.32,40.32,0,0,1,2.49,3.73c1,0,2.15-.13,3.24-.22a47.84,47.84,0,0,1,5.3-.22l.91,0,.38.83c.49,1.07.91,2.08,1.29,3.09l.33.86-.63.68a45,45,0,0,1-3.81,3.5c-.87.75-1.76,1.51-2.53,2.22a40.56,40.56,0,0,1,.87,4.39c.93.34,2,.68,3,1a45.51,45.51,0,0,1,5.08,1.87l.82.39,0,.9c0,.57,0,1.14,0,1.72s0,1.15,0,1.72l0,.9-.82.39a44.35,44.35,0,0,1-5,1.85c-1,.34-2.09.69-3,1a40.56,40.56,0,0,1-.87,4.39c.77.71,1.66,1.47,2.52,2.21a47.17,47.17,0,0,1,3.83,3.51l.62.68-.33.86c-.37,1-.79,2-1.29,3.09l-.38.83-.91,0a43.1,43.1,0,0,1-5.28-.22c-1.11-.09-2.24-.18-3.26-.21a41.41,41.41,0,0,1-2.49,3.71c.43.94,1,2,1.45,2.95a45.46,45.46,0,0,1,2.21,4.78l.32.86-.63.67c-.78.83-1.57,1.62-2.37,2.36l-.67.63-.86-.31a45.73,45.73,0,0,1-4.77-2.22c-.94-.47-2-1-3-1.44a43,43,0,0,1-3.72,2.49c0,1,.13,2.14.21,3.23a45.77,45.77,0,0,1,.23,5.3l0,.92-.84.38c-1.08.49-2.09.91-3.08,1.29l-.86.32-.68-.62a45.18,45.18,0,0,1-3.52-3.83c-.75-.87-1.5-1.75-2.21-2.51a42.4,42.4,0,0,1-4.38.87c-.35.92-.68,2-1,3a48.15,48.15,0,0,1-1.87,5.08l-.39.82-.91,0Q79,99.68,78.17,99.68Zm-.67-3c.44,0,.89,0,1.33,0,.46-1.12.91-2.49,1.35-3.83S81,90.18,81.49,89L81.91,88,83,87.85a38.39,38.39,0,0,0,5.27-1l1.08-.3.78.81c.9.92,1.85,2,2.76,3.1s1.79,2.09,2.62,3l1.16-.49c0-1.19-.13-2.61-.24-4s-.22-2.8-.24-4.07V83.67l1-.55a37.5,37.5,0,0,0,4.47-3l.88-.68,1,.44c1.19.51,2.53,1.19,3.71,1.79s2.48,1.26,3.58,1.73l.89-.89c-.47-1.09-1.11-2.34-1.73-3.57s-1.29-2.54-1.79-3.72l-.44-1,.68-.88a40.21,40.21,0,0,0,3-4.48l.55-1,1.12,0c1.27,0,2.69.13,4.07.24s2.82.22,4,.23c.17-.39.33-.77.48-1.15-.83-.81-1.88-1.71-2.91-2.59s-2.2-1.89-3.13-2.79l-.81-.78.3-1.08a37.49,37.49,0,0,0,1-5.27l.15-1.12,1-.41c1.16-.46,2.49-.89,3.79-1.31s2.73-.9,3.86-1.35V49.17c-1.13-.45-2.51-.9-3.86-1.34s-2.64-.87-3.79-1.32l-1-.41L116.17,45a37.07,37.07,0,0,0-1-5.28l-.3-1.07.81-.79c.93-.9,2-1.85,3.11-2.77s2.1-1.79,2.93-2.61c-.15-.38-.31-.76-.48-1.15-1.19,0-2.61.12-4,.23s-2.81.22-4.09.24l-1.12,0-.56-1a37.42,37.42,0,0,0-3-4.47l-.69-.89.45-1c.5-1.17,1.15-2.45,1.78-3.69s1.27-2.5,1.74-3.59l-.89-.89c-1.09.47-2.35,1.11-3.58,1.73s-2.53,1.28-3.71,1.79l-1,.44-.88-.69a40,40,0,0,0-4.47-3l-1-.55,0-1.13c0-1.27.14-2.69.24-4.06s.22-2.82.24-4l-1.16-.49c-.82.85-1.72,1.9-2.6,2.93s-1.88,2.19-2.78,3.12l-.78.8-1.08-.29A38.39,38.39,0,0,0,83,11.83l-1.11-.14-.42-1c-.45-1.15-.88-2.47-1.3-3.75S79.29,4.14,78.83,3H77.5c-.46,1.12-.91,2.51-1.35,3.85s-.85,2.62-1.31,3.78l-.41,1-1.12.14A38.69,38.69,0,0,0,68,12.88L67,13.17l-.78-.8c-.91-.94-1.9-2.1-2.78-3.12s-1.79-2.09-2.6-2.93l-1.15.49c0,1.2.12,2.62.23,4s.22,2.8.24,4.06l0,1.13-1,.55a38.32,38.32,0,0,0-4.47,3l-.88.68-1-.44c-1.17-.51-2.46-1.16-3.71-1.79s-2.49-1.26-3.58-1.73c-.3.29-.59.59-.88.89.46,1.08,1.09,2.33,1.71,3.54s1.3,2.57,1.8,3.74l.45,1-.69.89a38.24,38.24,0,0,0-3,4.47l-.56,1-1.12,0c-1.26,0-2.68-.13-4.05-.24s-2.83-.22-4-.23c-.17.39-.33.77-.48,1.15.84.82,1.9,1.72,2.93,2.61S39.76,37,40.7,37.86l.8.78-.3,1.07a38.52,38.52,0,0,0-1,5.28L40,46.1,39,46.51c-1.14.45-2.46.88-3.74,1.3s-2.78.91-3.9,1.36c0,.23,0,.45,0,.67s0,.44,0,.67c1.12.45,2.5.9,3.85,1.34s2.63.86,3.79,1.32l1.05.41.14,1.12a37.49,37.49,0,0,0,1,5.27L41.5,61l-.8.78c-.94.91-2.05,1.86-3.12,2.78s-2.09,1.79-2.93,2.61c.15.38.31.76.48,1.15,1.2,0,2.63-.12,4-.23s2.8-.22,4.07-.24l1.12,0,.56,1a37,37,0,0,0,3,4.47l.69.89-.45,1c-.51,1.18-1.19,2.52-1.79,3.71s-1.26,2.48-1.72,3.57c.29.3.58.6.88.89,1.1-.47,2.36-1.11,3.58-1.73s2.55-1.29,3.71-1.79l1-.44.88.69a39.67,39.67,0,0,0,4.48,3l1,.56,0,1.12c0,1.26-.13,2.68-.24,4.06s-.22,2.81-.23,4l1.15.49c.81-.84,1.71-1.89,2.58-2.91s1.89-2.21,2.8-3.14l.78-.8,1.08.3a39.93,39.93,0,0,0,5.27,1l1.12.14L74.84,89c.46,1.16.89,2.49,1.31,3.78S77,95.55,77.5,96.67Z"/></g></g></svg>